
<svg xmlns="http://www.w3.org/2000/svg" viewBox="0 0 1695.64 556.34"><defs><style>.cls-1{fill:#1a1a1a;}</style></defs><title>eyeq-logo-horizontal</title><g id="Layer_2" data-name="Layer 2"><g id="Layer_1-2" data-name="Layer 1"><path class="cls-1" d="M814.5,184.87q-25.24-15.08-61.66-15.09-39.55,0-68.16,18A118.16,118.16,0,0,0,641,235.86q-15.1,30.18-15.09,66.6,0,38,15.87,68.94t47.87,49.43q32,18.47,77.27,18.47A200.49,200.49,0,0,0,815,433.84a168.71,168.71,0,0,0,38.76-14.31l-3.12-54.63a150,150,0,0,1-78,21.33q-30.71,0-52.55-16.91T693,318.07H861.07a173.86,173.86,0,0,0,4.16-35.38q0-31.73-12.75-57.23A97.34,97.34,0,0,0,814.5,184.87ZM694.57,274.37q5.19-23.41,19.77-37.46t38.5-14q23.93,0,35.38,15.61a59.16,59.16,0,0,1,11.45,35.9Z"/><polygon class="cls-1" points="1014.57 341.49 947.97 173.95 876.16 173.95 984.39 416.93 945 514.52 1010.34 514.52 1154.01 173.95 1082.21 173.95 1014.57 341.49"/><path class="cls-1" d="M1352.51,184.87q-25.24-15.08-61.66-15.09-39.55,0-68.16,18A118.16,118.16,0,0,0,1179,235.86q-15.1,30.18-15.09,66.6,0,38,15.87,68.94t47.87,49.43q32,18.47,77.27,18.47a200.49,200.49,0,0,0,48.13-5.46,168.71,168.71,0,0,0,38.76-14.31l-3.12-54.63a150,150,0,0,1-78,21.33q-30.71,0-52.55-16.91T1231,318.07h168.06a173.86,173.86,0,0,0,4.16-35.38q0-31.73-12.75-57.23A97.34,97.34,0,0,0,1352.51,184.87Zm-119.93,89.49q5.19-23.41,19.77-37.46t38.5-14q23.93,0,35.38,15.61a59.16,59.16,0,0,1,11.45,35.9Z"/><path class="cls-1" d="M278.17,0C124.54,0,0,124.54,0,278.17S124.54,556.34,278.17,556.34,556.34,431.8,556.34,278.17,431.8,0,278.17,0ZM465,399.56A65.44,65.44,0,0,1,363.7,454.31,194.64,194.64,0,0,1,278.17,474c-108,0-195.83-87.85-195.83-195.83S170.19,82.35,278.17,82.35,474,170.19,474,278.17a194.64,194.64,0,0,1-19.69,85.53A65.12,65.12,0,0,1,465,399.56Z"/><path class="cls-1" d="M278.17,130.35c-81.51,0-147.83,66.31-147.83,147.83S196.66,426,278.17,426a147,147,0,0,0,57.63-11.7A65.43,65.43,0,0,1,414.3,335.8,147,147,0,0,0,426,278.17C426,196.66,359.68,130.35,278.17,130.35Z"/><path class="cls-1" d="M1636.57,170.37l.54,24.26q-32.17-28.48-76.46-28.48-38,0-65.39,18.46t-41.66,49.57q-14.24,31.12-14.24,68.55t14.24,68.55q14.24,31.12,41.66,49.57t65.39,18.46q41.65,0,69.61-21.62v96.83h65.39V170.37Zm-18.71,193q-15.56,22.15-46.67,22.15-30.59,0-47.72-22.68t-17.14-60.11q0-37.44,17.14-60.12t47.72-22.67q31.11,0,46.67,22.15t15.56,60.64Q1633.42,341.23,1617.86,363.37Z"/></g></g></svg>