<svg width="98" height="28" viewBox="0 0 98 28" fill="none" xmlns="http://www.w3.org/2000/svg">
<path d="M14.5732 14.1886L22.4189 11.4195L22.4485 11.4077H22.4603H22.4722L22.4781 11.4018L22.484 11.3958V11.3899V11.384V11.3781C22.484 11.3071 22.4663 11.2538 22.4367 11.2124V11.2065V11.2006V11.1947V11.1888V11.1828V11.1769V11.171L16.7151 9.15336L14.5909 14.4489L14.5732 14.1886ZM15.7566 6.79846L16.5317 4.86365C17.2831 2.98801 18.2476 1.77505 19.5374 1.0177C20.8036 0.272175 22.3302 0 24.2354 0H33.0337C33.2645 0 33.4775 0.0828358 33.6491 0.218923C33.8148 0.360928 33.939 0.550267 33.9864 0.775107C34.0337 0.999947 33.9982 1.22479 33.8976 1.42004C33.797 1.6153 33.6314 1.76914 33.4243 1.86381H33.4183C32.3533 2.33124 31.5072 3.03534 30.88 3.84595C30.17 4.76898 29.7381 5.82809 29.5901 6.82212L28.9452 11.1533C28.3949 14.8454 26.0815 16.3956 23.839 17.8925C23.7029 17.9813 23.5609 18.0819 23.265 18.2831L9.24211 27.8328C9.06461 27.9512 8.85752 28.0103 8.65043 27.9985C8.44334 27.9867 8.24808 27.9157 8.08241 27.7855C7.91674 27.6494 7.80432 27.466 7.75107 27.2648C7.69782 27.0637 7.70965 26.8506 7.79249 26.6554L11.6799 16.9754L2.56791 20.1883C2.27207 20.2948 1.96439 20.3244 1.66263 20.2829C1.36087 20.2415 1.07687 20.1291 0.816525 19.9457C0.556184 19.7563 0.349094 19.5256 0.213006 19.2593C0.0710021 18.9872 0 18.6913 0 18.3718V3.95245C0 3.63886 0.0710021 3.3371 0.213006 3.06493C0.349094 2.79867 0.556184 2.56199 0.816525 2.37857C1.07687 2.19515 1.36087 2.07681 1.66263 2.03539C1.96439 1.99398 2.26615 2.02356 2.56791 2.13006L13.5082 5.99376L15.7625 6.79254L15.7566 6.79846ZM23.0284 12.9579L22.9751 12.9756L15.6619 15.5554L13.7507 16.2299L10.1533 25.188L22.3243 16.8985L22.9159 16.5021C24.8567 15.2004 26.8625 13.8632 27.3062 10.8988L27.9512 6.5677C28.1405 5.31333 28.673 3.98204 29.5724 2.82234C29.8978 2.40224 30.2647 2.00581 30.6848 1.64488H24.2354C22.6201 1.64488 21.3539 1.85197 20.3776 2.43182C19.4191 2.99984 18.6736 3.95837 18.07 5.46716L17.3186 7.33689L22.9751 9.33086L22.9929 9.33678H23.0106V9.3427H23.0284V9.34862H23.0461V9.35453H23.0639L23.0816 9.36637H23.0994V9.37228H23.1171V9.3782H23.1349L23.1526 9.39595H23.1704V9.40187H23.1881L23.2059 9.41962H23.2236L23.2414 9.43737L23.2769 9.45512L23.2946 9.46695L23.3124 9.47879L23.342 9.49654L23.3597 9.50837L23.3893 9.52612L23.407 9.53795L23.4248 9.54979L23.4425 9.56162L23.4603 9.57346L23.478 9.58529L23.4958 9.59712L23.5135 9.60896L23.5254 9.62079L23.555 9.64446L23.5668 9.65629L23.5786 9.66813L23.5905 9.67996L23.6023 9.69179L23.6555 9.73913L23.6792 9.76279L23.6911 9.77463L23.7029 9.78646L23.7147 9.7983L23.7266 9.81013L23.7384 9.82196L23.7502 9.8338L23.7621 9.84563L23.7739 9.85746L23.7857 9.8693L23.8094 9.89888L23.8212 9.91072L23.8331 9.92255L23.8449 9.93438L23.8567 9.94622L23.8686 9.95805L23.8804 9.96988L23.8922 9.98172L23.9041 9.99355L23.9159 10.0113C24.1407 10.3308 24.265 10.7154 24.265 11.1237V11.1414V11.1592V11.1769V11.1947V11.2124V11.2302V11.2479V11.2657V11.2834V11.3012V11.3189V11.3367V11.3544V11.3722V11.3899V11.4077V11.4254V11.4432V11.4609V11.4787V11.4964V11.5142V11.5319V11.5497V11.5674V11.5852V11.6029V11.6207V11.6384V11.6562V11.6739V11.6917V11.7094V11.7272V11.7449H24.2591V11.7627H24.2531V11.7804H24.2472V11.7982H24.2413V11.8159H24.2354V11.8337H24.2295V11.8514H24.2236V11.8692H24.2177V11.8869H24.2117V11.9047H24.2058V11.9224H24.1999V11.9402H24.194V11.9579H24.1881V11.9757H24.1821V11.9934H24.1762V12.0112H24.1703V12.0289H24.1644V12.0467H24.1585L24.1466 12.0644L24.1407 12.0822L24.1289 12.0999L24.1171 12.1177L24.1052 12.1354L24.0934 12.1532L24.0816 12.171L24.0697 12.1887L24.0579 12.2065L24.0461 12.2242L24.0342 12.242L24.0224 12.2597L24.0106 12.2775L23.9987 12.2893L23.9869 12.3011L23.9751 12.313L23.9632 12.3248L23.9514 12.3366L23.9396 12.3485L23.9277 12.3603L23.9159 12.3721L23.9041 12.384L23.8922 12.3958L23.8804 12.4076L23.8686 12.4195L23.8567 12.4313L23.8449 12.4431L23.8331 12.455L23.8212 12.4668L23.8094 12.4786L23.7976 12.4905L23.7857 12.5023L23.7739 12.5141L23.7621 12.526L23.7502 12.5378L23.7384 12.5496L23.7266 12.5615L23.7147 12.5733L23.7029 12.5851L23.6911 12.597L23.6792 12.6088L23.6674 12.6206L23.6555 12.6325L23.6437 12.6443L23.6319 12.6561L23.62 12.668L23.6082 12.6798L23.5905 12.6916L23.5727 12.7035L23.555 12.7153L23.5372 12.7271L23.5195 12.739L23.5017 12.7508L23.484 12.7626L23.4662 12.7745L23.4485 12.7863L23.4307 12.7981L23.413 12.81L23.3952 12.8218H23.3775V12.8277H23.3597V12.8336H23.342V12.8396H23.3242V12.8455H23.3065V12.8514H23.2887V12.8573H23.271V12.8632L23.2355 12.881H23.2177V12.8869L23.1822 12.9046L23.1467 12.9165L23.0284 12.9579ZM25.259 5.10624C25.259 4.3193 24.62 3.68619 23.839 3.68619C23.0579 3.68619 22.4189 4.32521 22.4189 5.10624C22.4189 5.88726 23.0579 6.52628 23.839 6.52628C24.62 6.52628 25.259 5.88726 25.259 5.10624ZM12.9461 7.56173L2.00581 3.69803C1.95848 3.68028 1.91706 3.67436 1.87564 3.68028C1.84014 3.68028 1.79872 3.70395 1.7573 3.73353C1.7218 3.7572 1.69222 3.7927 1.67447 3.82228C1.65672 3.85187 1.6508 3.8992 1.6508 3.94654V18.3659C1.6508 18.4191 1.65672 18.4606 1.67447 18.4901C1.69222 18.5256 1.7218 18.5552 1.7573 18.5848C1.79872 18.6144 1.84014 18.6321 1.87564 18.6321C1.91114 18.6321 1.95848 18.6321 2.00581 18.6144L12.4905 14.9104L15.1353 8.325L12.9461 7.54989V7.56173Z" fill="#1a1a1a"/>
<path fill-rule="evenodd" clip-rule="evenodd" d="M93.6935 15.9463C94.5336 15.1002 95.0602 13.9345 95.0602 12.6624C95.0602 12.1062 94.9301 11.5382 94.6934 10.9998C94.4508 10.4554 94.1017 9.94658 93.6698 9.52648L93.652 9.50873L93.6402 9.49098C93.2438 9.02947 92.7645 8.68629 92.2438 8.46145C91.6817 8.21886 91.0605 8.10052 90.4214 8.10052C89.1552 8.10052 88.031 8.61529 87.2145 9.43181C86.3743 10.272 85.8655 11.4258 85.8655 12.6565C85.8655 13.8872 86.3684 15.1179 87.2027 15.964C88.0192 16.7983 89.1493 17.3131 90.4274 17.3131C91.7054 17.3131 92.8473 16.7865 93.6935 15.9403M85.4986 17.5793C84.2383 16.319 83.4573 14.5854 83.4573 12.6624C83.4573 10.7394 84.2443 9.0768 85.5164 7.82243C86.7767 6.59173 88.5103 5.81662 90.4274 5.81662C91.3622 5.81662 92.2675 5.98229 93.1018 6.32547C93.9183 6.65681 94.6697 7.15383 95.3324 7.8106L95.3443 7.82243C95.9833 8.5147 96.4862 9.28981 96.8294 10.1123C97.1666 10.9229 97.3501 11.7808 97.3501 12.6624C97.3501 14.5795 96.575 16.3131 95.3206 17.5734C94.0662 18.8337 92.3326 19.6088 90.4274 19.6088C88.5221 19.6088 86.753 18.8337 85.4986 17.5793ZM78.1085 18.4905V6.96449C78.1085 6.59765 78.2268 6.30772 78.4339 6.09471C78.6469 5.88171 78.9487 5.76929 79.3037 5.76929C79.5877 5.76929 79.9013 5.89354 80.132 6.14205C80.3214 6.34322 80.4456 6.62131 80.4456 6.96449V18.4964C80.4456 18.8041 80.3036 19.0881 80.1084 19.2952C79.8895 19.52 79.5818 19.668 79.3037 19.668C78.9546 19.668 78.6706 19.5437 78.4635 19.3425C78.2387 19.1236 78.1085 18.8218 78.1085 18.5023V18.4905ZM65.0382 9.55015C64.2039 10.3726 63.6773 11.5027 63.6773 12.7157C63.6773 13.9286 64.198 15.112 65.0323 15.9403C65.8665 16.7746 67.0144 17.2953 68.2569 17.2953C69.4995 17.2953 70.6118 16.7805 71.4165 15.9581C72.2331 15.1238 72.736 13.97 72.736 12.7157C72.736 12.124 72.6295 11.5382 72.4106 10.9939C72.2035 10.4732 71.8899 9.99392 71.4698 9.57974C71.0023 9.11231 70.5053 8.76913 69.9728 8.54429C69.4462 8.31945 68.8723 8.21294 68.2569 8.21294C67.0085 8.21294 65.8665 8.73363 65.0323 9.55015H65.0382ZM74.6057 10.1596C74.9666 10.982 75.156 11.8518 75.156 12.7157C75.156 14.6091 74.3809 16.3249 73.1324 17.5675C71.884 18.8159 70.1562 19.5851 68.2629 19.5851C67.1801 19.5851 66.186 19.3484 65.2985 18.9224C64.7127 18.6384 64.1684 18.2775 63.6832 17.8397V23.7092C63.6832 24.0287 63.5767 24.3304 63.3519 24.5553C63.1507 24.7564 62.8726 24.8807 62.5117 24.8807C62.204 24.8807 61.9141 24.7387 61.7011 24.5257C61.4999 24.3127 61.3638 24.0228 61.3638 23.7151V12.6032C61.4171 10.7513 62.2158 9.08864 63.4584 7.88752C64.7068 6.6864 66.405 5.94679 68.2629 5.94679C69.2095 5.94679 70.1148 6.10655 70.9491 6.44972C71.736 6.77515 72.452 7.25442 73.0673 7.9171C73.73 8.57979 74.2507 9.34898 74.6116 10.1655L74.6057 10.1596ZM55.6896 18.4905V6.96449C55.6896 6.59765 55.8079 6.30772 56.015 6.09471C56.228 5.88171 56.5297 5.76929 56.8848 5.76929C57.1688 5.76929 57.4824 5.89354 57.7131 6.14205C57.9025 6.34322 58.0267 6.62131 58.0267 6.96449V18.4964C58.0267 18.8041 57.8847 19.0881 57.6894 19.2952C57.4705 19.52 57.1629 19.668 56.8848 19.668C56.5357 19.668 56.2517 19.5437 56.0446 19.3425C55.8197 19.1236 55.6896 18.8218 55.6896 18.5023V18.4905ZM42.6133 9.55015C41.7791 10.3726 41.2524 11.5027 41.2524 12.7157C41.2524 13.9286 41.7731 15.112 42.6074 15.9403C43.4417 16.7746 44.5896 17.2953 45.8321 17.2953C47.0746 17.2953 48.187 16.7805 48.9917 15.9581C49.8082 15.1238 50.3111 13.97 50.3111 12.7157C50.3111 12.124 50.2046 11.5382 49.9857 10.9939C49.7786 10.4732 49.465 9.99392 49.0449 9.57974C48.5775 9.11231 48.0805 8.76913 47.548 8.54429C47.0214 8.31945 46.4474 8.21294 45.8321 8.21294C44.5836 8.21294 43.4417 8.73363 42.6074 9.55015H42.6133ZM52.1809 10.1596C52.5418 10.982 52.7311 11.8518 52.7311 12.7157C52.7311 14.6091 51.956 16.3249 50.7076 17.5675C49.4591 18.8159 47.7314 19.5851 45.838 19.5851C44.7552 19.5851 43.7612 19.3484 42.8737 18.9224C42.2879 18.6384 41.7435 18.2775 41.2584 17.8397V23.7092C41.2584 24.0287 41.1519 24.3304 40.927 24.5553C40.7259 24.7564 40.4478 24.8807 40.0868 24.8807C39.7792 24.8807 39.4892 24.7387 39.2762 24.5257C39.0751 24.3127 38.939 24.0228 38.939 23.7151V12.6032C38.9922 10.7513 39.791 9.08864 41.0335 7.88752C42.282 6.6864 43.9801 5.94679 45.838 5.94679C46.7847 5.94679 47.69 6.10655 48.5243 6.44972C49.3112 6.77515 50.0271 7.25442 50.6425 7.9171C51.3052 8.57979 51.8259 9.34898 52.1868 10.1655L52.1809 10.1596Z" fill="#1a1a1a"/>
</svg>
